<?xml version="1.0" encoding="utf-8"?>
<!-- Generator: Adobe Illustrator 16.0.0, SVG Export Plug-In . SVG Version: 6.00 Build 0)  -->
<!DOCTYPE svg PUBLIC "-//W3C//DTD SVG 1.1//EN" "http://www.w3.org/Graphics/SVG/1.1/DTD/svg11.dtd">
<svg version="1.1" id="图层_1" xmlns="http://www.w3.org/2000/svg" xmlns:xlink="http://www.w3.org/1999/xlink" x="0px" y="0px"
	 width="612px" height="792px" viewBox="0 0 612 792" enable-background="new 0 0 612 792" xml:space="preserve">
<path fill="#EDBE32" stroke="#223341" stroke-width="0.25" stroke-miterlimit="10" d="M576.39,390.312
	c0,0-6.138-10.083-10.759-11.333s-107.229,0-107.229,0s-8.976,9.576-8.976,12.915s0,57.337,0,57.337l2.34,0.031l124.623,1.635"/>
<rect x="489.389" y="473.483" fill="none" stroke="#223341" stroke-width="8" stroke-miterlimit="10" width="0.474" height="0.505"/>
<rect x="510.681" y="473.396" fill="none" stroke="#223341" stroke-width="8" stroke-miterlimit="10" width="0.474" height="0.505"/>
<rect x="532.667" y="473.483" fill="none" stroke="#223341" stroke-width="8" stroke-miterlimit="10" width="0.474" height="0.505"/>
<line fill="#231815" stroke="#223341" stroke-width="5" stroke-miterlimit="10" x1="447.667" y1="449.998" x2="574.63" y2="449.998"/>
<path fill="none" stroke="#223341" stroke-width="8" stroke-miterlimit="10" d="M236.5,340c0,0,5-6.25,6.25-12s0-52.5,0-52.5
	s1-11.5,4.25-16.25s12.241-15.304,22-17.5c10-2.25,19.493,0.02,24.25,1.75c5.5,2,11.75,7.75,14.75,12.25s4.25,9.5,4.5,13.25
	s0,161,0,161s-0.167,27.333,18.5,38.333s31.667,8.169,40.667,6.251s23.334-9.917,26.667-18.584s5.666-16.001,6.333-28.334
	s0-50.333,0-50.333s0.67-19.046,7-29.333c8-13,17-18.667,24-21.333s21.425-4.827,29.333-4.333
	c10.667,0.667,17.668,5.333,23.334,9.333s13.666,11.333,16.666,19s6.074,26.667,6.074,26.667l0.074,15.665"/>
<ellipse fill="#FFFFFF" stroke="#223341" stroke-width="8" stroke-miterlimit="10" cx="511.074" cy="414.66" rx="13.926" ry="21.999"/>
<polyline fill="#231815" stroke="#223341" stroke-width="8" stroke-miterlimit="10" points="511.148,447.997 511.148,437.998 
	511.148,451.664 "/>
<path fill="none" stroke="#223341" stroke-width="8" stroke-miterlimit="10" d="M574.63,508.918V391.079c0,0,0,7.671,0-1.079
	s-15.38-11.503-15.38-11.503S471,378.75,461.5,378.5s-13.833,14.161-13.833,14.161V510.5c0,0,0.333,8.833,3,15.5
	s5.666,13.333,12,20.333s21,20.334,37.667,22.334s23.647,0,31.49-2.667s21.843-11.666,26.51-17.333s12.332-18.333,13.666-26
	S574.63,508.918,574.63,508.918z"/>
<path fill="#223341" d="M222.316,344.421c0-5.639,4.45-10.193,9.94-10.193c5.474,0,9.924,4.554,9.924,10.193
	c0,5.622-4.45,10.177-9.924,10.177C226.767,354.599,222.316,350.043,222.316,344.421z"/>
<path fill="#223341" d="M200.518,345.13c0-4.106,3.24-7.421,7.238-7.421c3.986,0,7.226,3.315,7.226,7.421
	c0,4.094-3.24,7.411-7.226,7.411C203.758,352.541,200.518,349.224,200.518,345.13z"/>
<path fill="#223341" d="M183.449,345.129c0-2.895,2.285-5.232,5.103-5.232c2.81,0,5.094,2.337,5.094,5.232
	c0,2.886-2.284,5.225-5.094,5.225C185.734,350.354,183.449,348.015,183.449,345.129z"/>
<path fill="#223341" d="M169.555,345.128c0-2.382,1.88-4.306,4.199-4.306c2.313,0,4.192,1.923,4.192,4.306
	c0,2.375-1.879,4.299-4.192,4.299C171.435,349.428,169.555,347.503,169.555,345.128z"/>
<path fill="#223341" d="M158.916,345.127c0-1.824,1.44-3.297,3.216-3.297c1.771,0,3.21,1.473,3.21,3.297
	c0,1.819-1.439,3.293-3.21,3.293C160.355,348.42,158.916,346.947,158.916,345.127z"/>
<ellipse fill="#223341" cx="152.455" cy="345.126" rx="2.001" ry="2.054"/>
<polyline fill="none" stroke="#223341" stroke-width="8" stroke-miterlimit="10" points="447.667,451.664 572,451.664 
	447.667,451.664 "/>
<rect x="47.333" y="379.664" fill="none" width="202.583" height="140.668"/>
<text transform="matrix(1 0 0 1 47.3325 410.2676)" stroke="#223341" stroke-width="4" stroke-miterlimit="10" font-family="'SegoeUI-Semilight'" font-size="36">NOT FOUND</text>
</svg>
